<svg xmlns="http://www.w3.org/2000/svg" xmlns:xlink="http://www.w3.org/1999/xlink" width="500" zoomAndPan="magnify" viewBox="0 0 375 374.999991" height="500" preserveAspectRatio="xMidYMid meet" version="1.0"><defs><clipPath id="e05ec7adb0"><path d="M 45 92 L 330.363281 92 L 330.363281 283 L 45 283 Z M 45 92 " clip-rule="nonzero"/></clipPath><clipPath id="8461db569a"><path d="M 271 45 L 330.363281 45 L 330.363281 105 L 271 105 Z M 271 45 " clip-rule="nonzero"/></clipPath><clipPath id="852a75026c"><path d="M 271 270 L 330.363281 270 L 330.363281 330 L 271 330 Z M 271 270 " clip-rule="nonzero"/></clipPath></defs><path fill="#ffffff" d="M 188.082031 270.488281 C 133.960938 270.488281 93.738281 244.890625 57.65625 187.488281 C 93.738281 130.085938 133.960938 104.492188 188.082031 104.492188 C 242.203125 104.492188 282.425781 130.085938 318.507812 187.488281 C 282.414062 244.890625 242.191406 270.488281 188.082031 270.488281 Z M 188.082031 270.488281 " fill-opacity="1" fill-rule="nonzero"/><path fill="#6e96f9" d="M 235.507812 187.488281 C 235.507812 189.042969 235.433594 190.589844 235.28125 192.136719 C 235.128906 193.683594 234.902344 195.21875 234.597656 196.742188 C 234.292969 198.265625 233.917969 199.769531 233.464844 201.257812 C 233.015625 202.742188 232.492188 204.203125 231.898438 205.636719 C 231.304688 207.074219 230.640625 208.476562 229.910156 209.84375 C 229.175781 211.214844 228.378906 212.546875 227.515625 213.835938 C 226.652344 215.128906 225.730469 216.375 224.742188 217.574219 C 223.757812 218.777344 222.714844 219.925781 221.617188 221.023438 C 220.519531 222.121094 219.371094 223.164062 218.167969 224.148438 C 216.96875 225.136719 215.722656 226.058594 214.429688 226.921875 C 213.140625 227.785156 211.808594 228.582031 210.4375 229.316406 C 209.070312 230.046875 207.667969 230.710938 206.230469 231.304688 C 204.796875 231.898438 203.335938 232.421875 201.847656 232.875 C 200.363281 233.324219 198.855469 233.703125 197.332031 234.003906 C 195.808594 234.308594 194.277344 234.535156 192.730469 234.6875 C 191.183594 234.839844 189.632812 234.914062 188.082031 234.914062 C 186.527344 234.914062 184.976562 234.839844 183.433594 234.6875 C 181.886719 234.535156 180.351562 234.308594 178.828125 234.003906 C 177.304688 233.703125 175.800781 233.324219 174.3125 232.875 C 172.828125 232.421875 171.367188 231.898438 169.929688 231.304688 C 168.496094 230.710938 167.09375 230.046875 165.722656 229.316406 C 164.355469 228.582031 163.023438 227.785156 161.730469 226.921875 C 160.441406 226.058594 159.195312 225.136719 157.992188 224.148438 C 156.792969 223.164062 155.644531 222.121094 154.546875 221.023438 C 153.445312 219.925781 152.40625 218.777344 151.417969 217.574219 C 150.433594 216.375 149.511719 215.128906 148.648438 213.835938 C 147.785156 212.546875 146.984375 211.214844 146.253906 209.84375 C 145.523438 208.476562 144.859375 207.074219 144.265625 205.636719 C 143.667969 204.203125 143.148438 202.742188 142.695312 201.257812 C 142.246094 199.769531 141.867188 198.265625 141.566406 196.742188 C 141.261719 195.21875 141.035156 193.683594 140.882812 192.136719 C 140.730469 190.589844 140.652344 189.042969 140.652344 187.488281 C 140.652344 185.933594 140.730469 184.386719 140.882812 182.839844 C 141.035156 181.292969 141.261719 179.757812 141.566406 178.234375 C 141.867188 176.710938 142.246094 175.207031 142.695312 173.722656 C 143.148438 172.234375 143.667969 170.773438 144.265625 169.339844 C 144.859375 167.902344 145.523438 166.5 146.253906 165.132812 C 146.984375 163.761719 147.785156 162.429688 148.648438 161.140625 C 149.511719 159.847656 150.433594 158.601562 151.417969 157.402344 C 152.40625 156.199219 153.445312 155.050781 154.546875 153.953125 C 155.644531 152.855469 156.792969 151.8125 157.992188 150.828125 C 159.195312 149.839844 160.441406 148.917969 161.730469 148.054688 C 163.023438 147.191406 164.355469 146.394531 165.722656 145.660156 C 167.09375 144.929688 168.496094 144.265625 169.929688 143.671875 C 171.367188 143.078125 172.828125 142.554688 174.3125 142.101562 C 175.800781 141.652344 177.304688 141.277344 178.828125 140.972656 C 180.351562 140.667969 181.886719 140.441406 183.433594 140.289062 C 184.976562 140.136719 186.527344 140.0625 188.082031 140.0625 C 189.632812 140.0625 191.183594 140.136719 192.730469 140.289062 C 194.277344 140.441406 195.808594 140.667969 197.332031 140.972656 C 198.855469 141.277344 200.363281 141.652344 201.847656 142.101562 C 203.335938 142.554688 204.796875 143.078125 206.230469 143.671875 C 207.667969 144.265625 209.070312 144.929688 210.4375 145.660156 C 211.808594 146.394531 213.140625 147.191406 214.429688 148.054688 C 215.722656 148.917969 216.96875 149.839844 218.167969 150.828125 C 219.371094 151.8125 220.519531 152.855469 221.617188 153.953125 C 222.714844 155.050781 223.757812 156.199219 224.742188 157.402344 C 225.730469 158.601562 226.652344 159.847656 227.515625 161.140625 C 228.378906 162.429688 229.175781 163.761719 229.910156 165.132812 C 230.640625 166.5 231.304688 167.902344 231.898438 169.339844 C 232.492188 170.773438 233.015625 172.234375 233.464844 173.722656 C 233.917969 175.207031 234.292969 176.710938 234.597656 178.234375 C 234.902344 179.757812 235.128906 181.292969 235.28125 182.839844 C 235.433594 184.386719 235.507812 185.933594 235.507812 187.488281 Z M 235.507812 187.488281 " fill-opacity="1" fill-rule="nonzero"/><g clip-path="url(#e05ec7adb0)"><path fill="#274193" d="M 328.546875 193.796875 C 329.140625 192.851562 329.589844 191.84375 329.898438 190.769531 C 330.207031 189.699219 330.359375 188.605469 330.359375 187.488281 C 330.359375 186.371094 330.207031 185.277344 329.898438 184.207031 C 329.589844 183.132812 329.140625 182.125 328.546875 181.179688 C 290.058594 119.941406 246.730469 92.632812 188.082031 92.632812 C 129.433594 92.632812 86.113281 119.941406 47.617188 181.179688 C 47.023438 182.125 46.570312 183.132812 46.261719 184.203125 C 45.953125 185.277344 45.796875 186.371094 45.796875 187.488281 C 45.796875 188.605469 45.953125 189.699219 46.261719 190.773438 C 46.570312 191.84375 47.023438 192.855469 47.617188 193.796875 C 86.113281 255.035156 129.429688 282.34375 188.082031 282.34375 C 246.734375 282.34375 290.050781 255.035156 328.546875 193.796875 Z M 188.082031 258.628906 C 139.816406 258.628906 104.695312 237.273438 71.765625 187.488281 C 104.695312 137.707031 139.816406 116.347656 188.082031 116.347656 C 236.347656 116.347656 271.472656 137.710938 304.402344 187.488281 C 271.460938 237.261719 236.339844 258.628906 188.082031 258.628906 Z M 188.082031 258.628906 " fill-opacity="1" fill-rule="nonzero"/></g><path fill="#274193" d="M 188.082031 128.203125 C 186.140625 128.203125 184.203125 128.300781 182.269531 128.488281 C 180.339844 128.679688 178.417969 128.964844 176.515625 129.34375 C 174.609375 129.722656 172.730469 130.191406 170.871094 130.757812 C 169.015625 131.320312 167.1875 131.972656 165.394531 132.71875 C 163.601562 133.460938 161.847656 134.289062 160.136719 135.203125 C 158.421875 136.121094 156.757812 137.117188 155.144531 138.195312 C 153.53125 139.273438 151.972656 140.429688 150.472656 141.660156 C 148.972656 142.894531 147.535156 144.195312 146.160156 145.566406 C 144.789062 146.941406 143.484375 148.378906 142.253906 149.878906 C 141.023438 151.378906 139.867188 152.9375 138.789062 154.550781 C 137.710938 156.167969 136.710938 157.828125 135.796875 159.542969 C 134.882812 161.253906 134.054688 163.007812 133.308594 164.800781 C 132.566406 166.59375 131.914062 168.421875 131.351562 170.277344 C 130.785156 172.136719 130.316406 174.019531 129.9375 175.921875 C 129.558594 177.828125 129.273438 179.746094 129.082031 181.675781 C 128.890625 183.609375 128.796875 185.546875 128.796875 187.488281 C 128.796875 189.429688 128.890625 191.367188 129.082031 193.300781 C 129.273438 195.230469 129.558594 197.148438 129.9375 199.054688 C 130.316406 200.957031 130.785156 202.839844 131.351562 204.699219 C 131.914062 206.554688 132.566406 208.382812 133.308594 210.175781 C 134.054688 211.96875 134.882812 213.722656 135.796875 215.433594 C 136.710938 217.148438 137.710938 218.8125 138.789062 220.425781 C 139.867188 222.039062 141.023438 223.597656 142.253906 225.097656 C 143.484375 226.597656 144.789062 228.035156 146.160156 229.410156 C 147.535156 230.78125 148.972656 232.085938 150.472656 233.316406 C 151.972656 234.546875 153.53125 235.703125 155.144531 236.78125 C 156.757812 237.859375 158.421875 238.855469 160.136719 239.773438 C 161.847656 240.6875 163.601562 241.515625 165.394531 242.261719 C 167.1875 243.003906 169.015625 243.65625 170.871094 244.21875 C 172.730469 244.785156 174.609375 245.253906 176.515625 245.632812 C 178.417969 246.011719 180.339844 246.296875 182.269531 246.488281 C 184.203125 246.675781 186.140625 246.773438 188.082031 246.773438 C 190.023438 246.773438 191.960938 246.675781 193.890625 246.488281 C 195.824219 246.296875 197.742188 246.011719 199.648438 245.632812 C 201.550781 245.253906 203.433594 244.785156 205.289062 244.21875 C 207.148438 243.65625 208.972656 243.003906 210.769531 242.261719 C 212.5625 241.515625 214.316406 240.6875 216.027344 239.773438 C 217.738281 238.855469 219.402344 237.859375 221.019531 236.78125 C 222.632812 235.703125 224.191406 234.546875 225.691406 233.316406 C 227.191406 232.085938 228.628906 230.78125 230 229.410156 C 231.375 228.035156 232.675781 226.597656 233.910156 225.097656 C 235.140625 223.597656 236.296875 222.039062 237.375 220.425781 C 238.453125 218.8125 239.449219 217.148438 240.367188 215.433594 C 241.28125 213.722656 242.109375 211.96875 242.851562 210.175781 C 243.597656 208.382812 244.25 206.554688 244.8125 204.699219 C 245.375 202.839844 245.847656 200.957031 246.226562 199.054688 C 246.605469 197.148438 246.890625 195.230469 247.082031 193.300781 C 247.269531 191.367188 247.367188 189.429688 247.367188 187.488281 C 247.363281 185.546875 247.265625 183.609375 247.074219 181.679688 C 246.882812 179.75 246.59375 177.832031 246.214844 175.925781 C 245.835938 174.023438 245.363281 172.144531 244.796875 170.285156 C 244.230469 168.429688 243.578125 166.605469 242.835938 164.8125 C 242.089844 163.019531 241.261719 161.265625 240.34375 159.554688 C 239.429688 157.84375 238.433594 156.183594 237.351562 154.570312 C 236.273438 152.953125 235.117188 151.398438 233.886719 149.898438 C 232.65625 148.398438 231.355469 146.960938 229.980469 145.589844 C 228.609375 144.214844 227.171875 142.914062 225.671875 141.683594 C 224.171875 140.449219 222.613281 139.296875 221 138.21875 C 219.386719 137.136719 217.726562 136.140625 216.015625 135.226562 C 214.300781 134.308594 212.550781 133.480469 210.757812 132.734375 C 208.964844 131.992188 207.140625 131.335938 205.28125 130.773438 C 203.425781 130.207031 201.546875 129.734375 199.640625 129.355469 C 197.738281 128.972656 195.820312 128.6875 193.890625 128.496094 C 191.957031 128.304688 190.023438 128.207031 188.082031 128.203125 Z M 188.082031 223.058594 C 186.917969 223.058594 185.753906 223 184.59375 222.886719 C 183.433594 222.773438 182.285156 222.601562 181.140625 222.375 C 180 222.148438 178.871094 221.867188 177.753906 221.527344 C 176.640625 221.1875 175.546875 220.796875 174.46875 220.351562 C 173.394531 219.90625 172.339844 219.40625 171.3125 218.859375 C 170.285156 218.308594 169.289062 217.710938 168.320312 217.0625 C 167.351562 216.417969 166.417969 215.722656 165.515625 214.984375 C 164.613281 214.246094 163.753906 213.464844 162.929688 212.640625 C 162.105469 211.816406 161.324219 210.953125 160.585938 210.054688 C 159.847656 209.152344 159.152344 208.21875 158.503906 207.25 C 157.859375 206.28125 157.261719 205.285156 156.710938 204.257812 C 156.160156 203.230469 155.664062 202.175781 155.21875 201.101562 C 154.773438 200.023438 154.378906 198.929688 154.042969 197.8125 C 153.703125 196.699219 153.421875 195.570312 153.195312 194.429688 C 152.96875 193.285156 152.796875 192.132812 152.683594 190.976562 C 152.566406 189.816406 152.511719 188.652344 152.511719 187.488281 C 152.511719 186.324219 152.566406 185.160156 152.683594 184 C 152.796875 182.84375 152.96875 181.691406 153.195312 180.550781 C 153.421875 179.40625 153.703125 178.277344 154.042969 177.164062 C 154.378906 176.046875 154.773438 174.953125 155.21875 173.875 C 155.664062 172.800781 156.160156 171.746094 156.710938 170.71875 C 157.261719 169.691406 157.859375 168.695312 158.503906 167.726562 C 159.152344 166.757812 159.847656 165.824219 160.585938 164.921875 C 161.324219 164.023438 162.105469 163.160156 162.929688 162.335938 C 163.753906 161.511719 164.613281 160.730469 165.515625 159.992188 C 166.417969 159.253906 167.351562 158.558594 168.320312 157.914062 C 169.289062 157.265625 170.285156 156.667969 171.3125 156.117188 C 172.339844 155.570312 173.394531 155.070312 174.46875 154.625 C 175.546875 154.179688 176.640625 153.789062 177.753906 153.449219 C 178.871094 153.113281 180 152.828125 181.140625 152.601562 C 182.285156 152.375 183.433594 152.203125 184.59375 152.089844 C 185.753906 151.976562 186.917969 151.917969 188.082031 151.917969 C 189.246094 151.917969 190.410156 151.976562 191.566406 152.089844 C 192.726562 152.203125 193.878906 152.375 195.019531 152.601562 C 196.164062 152.828125 197.292969 153.113281 198.40625 153.449219 C 199.523438 153.789062 200.617188 154.179688 201.695312 154.625 C 202.769531 155.070312 203.820312 155.570312 204.847656 156.117188 C 205.875 156.667969 206.875 157.265625 207.84375 157.914062 C 208.8125 158.558594 209.746094 159.253906 210.648438 159.992188 C 211.546875 160.730469 212.410156 161.511719 213.234375 162.335938 C 214.058594 163.160156 214.839844 164.023438 215.578125 164.921875 C 216.316406 165.824219 217.011719 166.757812 217.65625 167.726562 C 218.304688 168.695312 218.902344 169.691406 219.453125 170.71875 C 220 171.746094 220.5 172.800781 220.945312 173.875 C 221.390625 174.953125 221.78125 176.046875 222.121094 177.164062 C 222.457031 178.277344 222.742188 179.40625 222.96875 180.550781 C 223.195312 181.691406 223.367188 182.84375 223.480469 184 C 223.59375 185.160156 223.652344 186.324219 223.652344 187.488281 C 223.652344 188.652344 223.59375 189.816406 223.476562 190.972656 C 223.363281 192.132812 223.191406 193.28125 222.960938 194.425781 C 222.734375 195.566406 222.449219 196.695312 222.113281 197.808594 C 221.773438 198.925781 221.378906 200.019531 220.933594 201.09375 C 220.488281 202.171875 219.988281 203.222656 219.441406 204.25 C 218.890625 205.273438 218.292969 206.273438 217.644531 207.242188 C 216.996094 208.210938 216.304688 209.144531 215.566406 210.042969 C 214.828125 210.945312 214.046875 211.804688 213.222656 212.628906 C 212.398438 213.453125 211.535156 214.234375 210.636719 214.972656 C 209.734375 215.710938 208.800781 216.40625 207.832031 217.050781 C 206.867188 217.699219 205.867188 218.296875 204.839844 218.847656 C 203.816406 219.398438 202.761719 219.894531 201.6875 220.339844 C 200.613281 220.789062 199.515625 221.179688 198.402344 221.519531 C 197.289062 221.855469 196.160156 222.140625 195.019531 222.367188 C 193.875 222.597656 192.726562 222.769531 191.566406 222.882812 C 190.40625 223 189.246094 223.058594 188.082031 223.058594 Z M 188.082031 223.058594 " fill-opacity="1" fill-rule="nonzero"/><path fill="#274193" d="M 57.65625 104.492188 C 58.433594 104.492188 59.207031 104.414062 59.96875 104.261719 C 60.734375 104.109375 61.472656 103.886719 62.195312 103.589844 C 62.914062 103.289062 63.597656 102.925781 64.242188 102.492188 C 64.890625 102.058594 65.488281 101.566406 66.039062 101.019531 C 66.589844 100.46875 67.082031 99.867188 67.515625 99.222656 C 67.945312 98.574219 68.3125 97.890625 68.609375 97.171875 C 68.910156 96.453125 69.132812 95.710938 69.285156 94.945312 C 69.4375 94.183594 69.511719 93.414062 69.511719 92.632812 L 69.511719 68.921875 L 93.226562 68.921875 C 94.003906 68.921875 94.777344 68.84375 95.539062 68.691406 C 96.304688 68.539062 97.042969 68.316406 97.765625 68.015625 C 98.484375 67.71875 99.167969 67.355469 99.8125 66.921875 C 100.460938 66.488281 101.058594 65.996094 101.609375 65.445312 C 102.160156 64.898438 102.652344 64.296875 103.085938 63.652344 C 103.519531 63.003906 103.882812 62.320312 104.179688 61.601562 C 104.480469 60.882812 104.703125 60.140625 104.855469 59.375 C 105.007812 58.613281 105.082031 57.839844 105.082031 57.0625 C 105.082031 56.285156 105.007812 55.511719 104.855469 54.75 C 104.703125 53.988281 104.480469 53.246094 104.179688 52.527344 C 103.882812 51.804688 103.519531 51.125 103.085938 50.476562 C 102.652344 49.828125 102.160156 49.230469 101.609375 48.679688 C 101.058594 48.128906 100.460938 47.636719 99.8125 47.203125 C 99.167969 46.773438 98.484375 46.40625 97.765625 46.109375 C 97.042969 45.8125 96.304688 45.585938 95.539062 45.433594 C 94.777344 45.28125 94.003906 45.207031 93.226562 45.207031 L 57.65625 45.207031 C 56.878906 45.207031 56.105469 45.28125 55.34375 45.433594 C 54.578125 45.585938 53.835938 45.8125 53.117188 46.109375 C 52.398438 46.40625 51.714844 46.773438 51.070312 47.203125 C 50.421875 47.636719 49.824219 48.128906 49.273438 48.679688 C 48.722656 49.230469 48.230469 49.828125 47.796875 50.476562 C 47.363281 51.125 47 51.804688 46.703125 52.527344 C 46.402344 53.246094 46.179688 53.988281 46.027344 54.75 C 45.875 55.511719 45.800781 56.285156 45.800781 57.0625 L 45.800781 92.632812 C 45.800781 93.414062 45.875 94.183594 46.027344 94.945312 C 46.179688 95.710938 46.402344 96.453125 46.703125 97.171875 C 47 97.890625 47.363281 98.574219 47.796875 99.222656 C 48.230469 99.867188 48.722656 100.46875 49.273438 101.019531 C 49.824219 101.566406 50.421875 102.058594 51.070312 102.492188 C 51.714844 102.925781 52.398438 103.289062 53.117188 103.589844 C 53.835938 103.886719 54.578125 104.109375 55.34375 104.261719 C 56.105469 104.414062 56.878906 104.492188 57.65625 104.492188 Z M 57.65625 104.492188 " fill-opacity="1" fill-rule="nonzero"/><g clip-path="url(#8461db569a)"><path fill="#274193" d="M 318.507812 45.207031 L 282.9375 45.207031 C 282.15625 45.207031 281.386719 45.28125 280.621094 45.433594 C 279.859375 45.585938 279.117188 45.8125 278.398438 46.109375 C 277.679688 46.40625 276.996094 46.773438 276.347656 47.203125 C 275.703125 47.636719 275.101562 48.128906 274.550781 48.679688 C 274 49.230469 273.511719 49.828125 273.078125 50.476562 C 272.644531 51.125 272.28125 51.804688 271.980469 52.527344 C 271.683594 53.246094 271.457031 53.988281 271.308594 54.75 C 271.15625 55.511719 271.078125 56.285156 271.078125 57.0625 C 271.078125 57.839844 271.15625 58.613281 271.308594 59.375 C 271.457031 60.140625 271.683594 60.882812 271.980469 61.601562 C 272.28125 62.320312 272.644531 63.003906 273.078125 63.652344 C 273.511719 64.296875 274 64.898438 274.550781 65.445312 C 275.101562 65.996094 275.703125 66.488281 276.347656 66.921875 C 276.996094 67.355469 277.679688 67.71875 278.398438 68.015625 C 279.117188 68.316406 279.859375 68.539062 280.621094 68.691406 C 281.386719 68.84375 282.15625 68.921875 282.9375 68.921875 L 306.648438 68.921875 L 306.648438 92.632812 C 306.648438 93.414062 306.726562 94.183594 306.878906 94.945312 C 307.03125 95.710938 307.253906 96.453125 307.550781 97.171875 C 307.851562 97.890625 308.214844 98.574219 308.648438 99.222656 C 309.082031 99.867188 309.570312 100.46875 310.121094 101.019531 C 310.671875 101.566406 311.273438 102.058594 311.917969 102.492188 C 312.566406 102.925781 313.25 103.289062 313.96875 103.589844 C 314.6875 103.886719 315.429688 104.109375 316.195312 104.261719 C 316.957031 104.414062 317.726562 104.492188 318.507812 104.492188 C 319.285156 104.492188 320.054688 104.414062 320.820312 104.261719 C 321.582031 104.109375 322.324219 103.886719 323.042969 103.589844 C 323.761719 103.289062 324.445312 102.925781 325.09375 102.492188 C 325.742188 102.058594 326.339844 101.566406 326.890625 101.019531 C 327.441406 100.46875 327.933594 99.867188 328.363281 99.222656 C 328.796875 98.574219 329.164062 97.890625 329.460938 97.171875 C 329.757812 96.453125 329.984375 95.710938 330.136719 94.945312 C 330.289062 94.183594 330.363281 93.414062 330.363281 92.632812 L 330.363281 57.0625 C 330.363281 56.285156 330.289062 55.511719 330.136719 54.75 C 329.984375 53.988281 329.757812 53.246094 329.460938 52.527344 C 329.164062 51.804688 328.796875 51.125 328.363281 50.476562 C 327.933594 49.828125 327.441406 49.230469 326.890625 48.679688 C 326.339844 48.128906 325.742188 47.636719 325.09375 47.203125 C 324.445312 46.773438 323.761719 46.40625 323.042969 46.109375 C 322.324219 45.8125 321.582031 45.585938 320.820312 45.433594 C 320.054688 45.28125 319.285156 45.207031 318.507812 45.207031 Z M 318.507812 45.207031 " fill-opacity="1" fill-rule="nonzero"/></g><path fill="#274193" d="M 93.226562 306.058594 L 69.511719 306.058594 L 69.511719 282.34375 C 69.511719 281.566406 69.4375 280.792969 69.285156 280.03125 C 69.132812 279.265625 68.910156 278.523438 68.609375 277.804688 C 68.3125 277.085938 67.945312 276.402344 67.515625 275.757812 C 67.082031 275.109375 66.589844 274.507812 66.039062 273.960938 C 65.488281 273.410156 64.890625 272.917969 64.242188 272.484375 C 63.597656 272.050781 62.914062 271.6875 62.195312 271.390625 C 61.472656 271.089844 60.734375 270.867188 59.96875 270.714844 C 59.207031 270.5625 58.433594 270.488281 57.65625 270.488281 C 56.878906 270.488281 56.105469 270.5625 55.34375 270.714844 C 54.578125 270.867188 53.835938 271.089844 53.117188 271.390625 C 52.398438 271.6875 51.714844 272.050781 51.070312 272.484375 C 50.421875 272.917969 49.824219 273.410156 49.273438 273.960938 C 48.722656 274.507812 48.230469 275.109375 47.796875 275.757812 C 47.363281 276.402344 47 277.085938 46.703125 277.804688 C 46.402344 278.523438 46.179688 279.265625 46.027344 280.03125 C 45.875 280.792969 45.800781 281.566406 45.800781 282.34375 L 45.800781 317.914062 C 45.800781 318.691406 45.875 319.464844 46.027344 320.226562 C 46.179688 320.992188 46.402344 321.730469 46.703125 322.449219 C 47 323.171875 47.363281 323.855469 47.796875 324.5 C 48.230469 325.148438 48.722656 325.746094 49.273438 326.296875 C 49.824219 326.847656 50.421875 327.339844 51.070312 327.773438 C 51.714844 328.203125 52.398438 328.570312 53.117188 328.867188 C 53.835938 329.164062 54.578125 329.390625 55.34375 329.542969 C 56.105469 329.695312 56.878906 329.769531 57.65625 329.769531 L 93.226562 329.769531 C 94.003906 329.769531 94.777344 329.695312 95.539062 329.542969 C 96.304688 329.390625 97.042969 329.164062 97.765625 328.867188 C 98.484375 328.570312 99.167969 328.203125 99.8125 327.773438 C 100.460938 327.339844 101.058594 326.847656 101.609375 326.296875 C 102.160156 325.746094 102.652344 325.148438 103.085938 324.5 C 103.519531 323.855469 103.882812 323.171875 104.179688 322.449219 C 104.480469 321.730469 104.703125 320.992188 104.855469 320.226562 C 105.007812 319.464844 105.082031 318.691406 105.082031 317.914062 C 105.082031 317.136719 105.007812 316.363281 104.855469 315.601562 C 104.703125 314.835938 104.480469 314.09375 104.179688 313.375 C 103.882812 312.65625 103.519531 311.972656 103.085938 311.328125 C 102.652344 310.679688 102.160156 310.082031 101.609375 309.53125 C 101.058594 308.980469 100.460938 308.488281 99.8125 308.054688 C 99.167969 307.621094 98.484375 307.257812 97.765625 306.960938 C 97.042969 306.660156 96.304688 306.4375 95.539062 306.285156 C 94.777344 306.132812 94.003906 306.058594 93.226562 306.058594 Z M 93.226562 306.058594 " fill-opacity="1" fill-rule="nonzero"/><g clip-path="url(#852a75026c)"><path fill="#274193" d="M 318.507812 270.488281 C 317.726562 270.488281 316.957031 270.5625 316.195312 270.714844 C 315.429688 270.867188 314.6875 271.089844 313.96875 271.390625 C 313.25 271.6875 312.566406 272.050781 311.917969 272.484375 C 311.273438 272.917969 310.671875 273.410156 310.121094 273.960938 C 309.570312 274.507812 309.082031 275.109375 308.648438 275.757812 C 308.214844 276.402344 307.851562 277.085938 307.550781 277.804688 C 307.253906 278.523438 307.03125 279.265625 306.878906 280.03125 C 306.726562 280.792969 306.648438 281.566406 306.648438 282.34375 L 306.648438 306.058594 L 282.9375 306.058594 C 282.15625 306.058594 281.386719 306.132812 280.621094 306.285156 C 279.859375 306.4375 279.117188 306.660156 278.398438 306.960938 C 277.679688 307.257812 276.996094 307.621094 276.347656 308.054688 C 275.703125 308.488281 275.101562 308.980469 274.550781 309.53125 C 274 310.082031 273.511719 310.679688 273.078125 311.328125 C 272.644531 311.972656 272.28125 312.65625 271.980469 313.375 C 271.683594 314.09375 271.457031 314.835938 271.308594 315.601562 C 271.15625 316.363281 271.078125 317.136719 271.078125 317.914062 C 271.078125 318.691406 271.15625 319.464844 271.308594 320.226562 C 271.457031 320.992188 271.683594 321.730469 271.980469 322.449219 C 272.28125 323.171875 272.644531 323.855469 273.078125 324.5 C 273.511719 325.148438 274 325.746094 274.550781 326.296875 C 275.101562 326.847656 275.703125 327.339844 276.347656 327.773438 C 276.996094 328.203125 277.679688 328.570312 278.398438 328.867188 C 279.117188 329.164062 279.859375 329.390625 280.621094 329.542969 C 281.386719 329.695312 282.15625 329.769531 282.9375 329.769531 L 318.507812 329.769531 C 319.285156 329.769531 320.054688 329.695312 320.820312 329.542969 C 321.582031 329.390625 322.324219 329.164062 323.042969 328.867188 C 323.761719 328.570312 324.445312 328.203125 325.09375 327.773438 C 325.742188 327.339844 326.339844 326.847656 326.890625 326.296875 C 327.441406 325.746094 327.933594 325.148438 328.363281 324.5 C 328.796875 323.855469 329.164062 323.171875 329.460938 322.449219 C 329.757812 321.730469 329.984375 320.992188 330.136719 320.226562 C 330.289062 319.464844 330.363281 318.691406 330.363281 317.914062 L 330.363281 282.34375 C 330.363281 281.566406 330.289062 280.792969 330.136719 280.03125 C 329.984375 279.265625 329.757812 278.523438 329.460938 277.804688 C 329.164062 277.085938 328.796875 276.402344 328.363281 275.757812 C 327.933594 275.109375 327.441406 274.507812 326.890625 273.960938 C 326.339844 273.410156 325.742188 272.917969 325.09375 272.484375 C 324.445312 272.050781 323.761719 271.6875 323.042969 271.390625 C 322.324219 271.089844 321.582031 270.867188 320.820312 270.714844 C 320.054688 270.5625 319.285156 270.488281 318.507812 270.488281 Z M 318.507812 270.488281 " fill-opacity="1" fill-rule="nonzero"/></g></svg>