<svg xmlns="http://www.w3.org/2000/svg" xmlns:xlink="http://www.w3.org/1999/xlink" width="500" zoomAndPan="magnify" viewBox="0 0 375 374.999991" height="500" preserveAspectRatio="xMidYMid meet" version="1.0"><defs><clipPath id="65aa6a0a61"><path d="M 64.941406 204 L 155 204 L 155 320.917969 L 64.941406 320.917969 Z M 64.941406 204 " clip-rule="nonzero"/></clipPath><clipPath id="df3d10c7bb"><path d="M 274 54.179688 L 310.003906 54.179688 L 310.003906 100.839844 L 274 100.839844 Z M 274 54.179688 " clip-rule="nonzero"/></clipPath><clipPath id="c37a2725ce"><path d="M 119.21875 313.191406 L 130 313.191406 L 130 320.847656 L 119.21875 320.847656 Z M 119.21875 313.191406 " clip-rule="nonzero"/></clipPath></defs><g clip-path="url(#65aa6a0a61)"><path fill="#241109" d="M 109.695312 277.578125 C 93.289062 277.578125 79.984375 264.273438 79.984375 247.867188 C 79.984375 231.460938 93.289062 218.15625 109.695312 218.15625 C 126.105469 218.15625 139.40625 231.460938 139.40625 247.867188 C 139.40625 264.273438 126.105469 277.578125 109.695312 277.578125 Z M 109.695312 204.269531 C 84.976562 204.269531 64.941406 224.304688 64.941406 249.023438 C 64.941406 273.742188 103.523438 320.019531 109.695312 320.019531 C 116.257812 320.019531 154.457031 273.742188 154.457031 249.023438 C 154.457031 224.304688 134.417969 204.269531 109.695312 204.269531 " fill-opacity="1" fill-rule="nonzero"/></g><g clip-path="url(#df3d10c7bb)"><path fill="#241109" d="M 292.105469 83.503906 C 285.539062 83.503906 280.21875 78.183594 280.21875 71.617188 C 280.21875 65.058594 285.539062 59.738281 292.105469 59.738281 C 298.664062 59.738281 303.984375 65.058594 303.984375 71.617188 C 303.984375 78.183594 298.664062 83.503906 292.105469 83.503906 Z M 292.105469 54.179688 C 282.21875 54.179688 274.199219 62.191406 274.199219 72.082031 C 274.199219 81.972656 289.632812 100.480469 292.105469 100.480469 C 294.726562 100.480469 310.007812 81.972656 310.007812 72.082031 C 310.007812 62.191406 301.992188 54.179688 292.105469 54.179688 " fill-opacity="1" fill-rule="nonzero"/></g><path fill="#241109" d="M 247.34375 111.082031 L 246.195312 106.605469 L 268.667969 101.242188 L 269.613281 104.910156 Z M 217.699219 119.039062 L 216.179688 114.15625 C 216.175781 114.179688 238.6875 108.511719 238.730469 108.507812 L 239.890625 113.011719 C 239.890625 113.011719 217.714844 119.03125 217.699219 119.039062 Z M 197.570312 136.84375 L 192.003906 135.269531 C 194.152344 127.660156 200.011719 121.117188 208.503906 116.851562 L 211.101562 122.019531 C 202.101562 126.542969 198.777344 132.578125 197.570312 136.84375 Z M 205.53125 163.929688 C 202.753906 162.074219 201.011719 160.917969 200.660156 160.6875 L 200.460938 160.550781 C 195.160156 156.605469 191.777344 150.546875 191.183594 143.929688 L 196.949219 143.414062 C 197.394531 148.375 199.917969 152.914062 203.875 155.878906 C 204.871094 156.53125 208.703125 159.09375 208.746094 159.117188 Z M 231.03125 181.238281 C 224.859375 176.988281 218.429688 172.609375 211.929688 168.226562 L 215.164062 163.429688 C 221.683594 167.820312 228.125 172.210938 234.3125 176.472656 Z M 256.203125 198.941406 C 250.542969 194.863281 244.203125 190.382812 237.359375 185.621094 L 240.664062 180.871094 C 247.535156 185.652344 253.902344 190.148438 259.589844 194.246094 Z M 280.671875 217.433594 C 276.007812 213.625 269.871094 208.925781 262.425781 203.460938 L 265.847656 198.796875 C 273.375 204.316406 279.59375 209.078125 284.332031 212.953125 Z M 300.707031 240.472656 L 294.921875 240.277344 C 294.929688 240.035156 294.933594 239.789062 294.933594 239.542969 C 294.933594 235.015625 293.53125 230.671875 290.875 226.976562 C 290.335938 226.222656 289.121094 224.804688 286.421875 222.347656 L 290.316406 218.066406 C 292.816406 220.339844 294.535156 222.152344 295.578125 223.597656 C 298.945312 228.28125 300.722656 233.796875 300.722656 239.542969 C 300.722656 239.851562 300.71875 240.164062 300.707031 240.472656 Z M 283.375 267.5625 L 279.855469 262.964844 C 284.710938 259.25 288.5 255.460938 291.117188 251.707031 C 292.15625 250.214844 293 248.59375 293.628906 246.890625 L 299.058594 248.894531 C 298.265625 251.054688 297.1875 253.117188 295.863281 255.015625 C 292.902344 259.261719 288.699219 263.480469 283.375 267.5625 Z M 256.199219 283.25 L 253.785156 277.988281 C 261.4375 274.480469 268.152344 270.871094 273.742188 267.253906 L 276.886719 272.113281 C 271.0625 275.878906 264.101562 279.625 256.199219 283.25 Z M 227.28125 294.628906 L 225.40625 289.148438 C 233.117188 286.511719 240.320312 283.785156 246.824219 281.046875 L 249.066406 286.382812 C 242.445312 289.171875 235.113281 291.945312 227.28125 294.628906 Z M 197.664062 303.699219 L 196.125 298.125 C 203.828125 295.996094 211.238281 293.789062 218.144531 291.5625 L 219.921875 297.066406 C 212.933594 299.320312 205.445312 301.554688 197.664062 303.699219 Z M 167.667969 311.253906 L 166.375 305.613281 C 174.035156 303.851562 181.554688 302.003906 188.722656 300.117188 L 190.191406 305.714844 C 182.96875 307.613281 175.390625 309.480469 167.667969 311.253906 Z M 137.40625 317.621094 L 136.320312 311.9375 C 143.828125 310.5 151.421875 308.9375 158.882812 307.296875 L 160.128906 312.949219 C 152.609375 314.601562 144.964844 316.175781 137.40625 317.621094 " fill-opacity="1" fill-rule="nonzero"/><g clip-path="url(#c37a2725ce)"><path fill="#241109" d="M 128.21875 313.441406 C 124.390625 317.460938 121.203125 320.140625 119.332031 320.847656 C 120.992188 320.582031 124.671875 319.96875 129.824219 319.035156 L 128.789062 313.339844 C 128.597656 313.375 128.410156 313.410156 128.21875 313.441406 " fill-opacity="1" fill-rule="nonzero"/></g><path fill="#241109" d="M 284.578125 97.941406 L 275.625 99.574219 L 276.511719 103.011719 L 287.875 101.238281 C 286.980469 100.503906 285.839844 99.363281 284.578125 97.941406 " fill-opacity="1" fill-rule="nonzero"/></svg>