<svg xmlns="http://www.w3.org/2000/svg" xmlns:xlink="http://www.w3.org/1999/xlink" width="500" zoomAndPan="magnify" viewBox="0 0 375 374.999991" height="500" preserveAspectRatio="xMidYMid meet" version="1.0"><defs><clipPath id="a34e75f7cf"><path d="M 49.011719 49.011719 L 325.761719 49.011719 L 325.761719 325.761719 L 49.011719 325.761719 Z M 49.011719 49.011719 " clip-rule="nonzero"/></clipPath></defs><g clip-path="url(#a34e75f7cf)"><path fill="#241109" d="M 291.621094 216.046875 C 289.894531 217.808594 287.0625 217.835938 285.300781 216.113281 C 283.542969 214.386719 283.511719 211.554688 285.238281 209.792969 C 290.828125 204.085938 294.277344 196.210938 294.277344 187.5 C 294.277344 178.804688 290.828125 170.910156 285.238281 165.203125 C 283.511719 163.441406 283.542969 160.613281 285.300781 158.886719 C 287.0625 157.160156 289.894531 157.191406 291.621094 158.953125 C 298.78125 166.261719 303.210938 176.363281 303.210938 187.5 C 303.210938 198.65625 298.78125 208.738281 291.621094 216.046875 Z M 301.347656 148.78125 C 299.621094 147.019531 299.652344 144.1875 301.410156 142.460938 C 303.171875 140.738281 306.003906 140.765625 307.730469 142.527344 C 319.003906 154.039062 325.984375 169.945312 325.984375 187.5 C 325.984375 205.074219 319.003906 220.960938 307.730469 232.472656 C 306.003906 234.234375 303.171875 234.261719 301.410156 232.535156 C 299.652344 230.8125 299.621094 227.980469 301.347656 226.21875 C 311.054688 216.308594 317.050781 202.628906 317.050781 187.5 C 317.050781 172.386719 311.054688 158.6875 301.347656 148.78125 Z M 216.046875 83.378906 C 217.808594 85.105469 217.835938 87.933594 216.113281 89.695312 C 214.386719 91.457031 211.554688 91.488281 209.792969 89.761719 C 204.085938 84.171875 196.210938 80.722656 187.5 80.722656 C 178.804688 80.722656 170.910156 84.171875 165.203125 89.761719 C 163.441406 91.488281 160.613281 91.457031 158.886719 89.695312 C 157.160156 87.933594 157.191406 85.105469 158.953125 83.378906 C 166.261719 76.21875 176.363281 71.789062 187.5 71.789062 C 198.65625 71.789062 208.738281 76.21875 216.046875 83.378906 Z M 148.78125 73.652344 C 147.019531 75.378906 144.1875 75.347656 142.460938 73.585938 C 140.738281 71.824219 140.765625 68.996094 142.527344 67.269531 C 154.039062 55.992188 169.945312 49.011719 187.5 49.011719 C 205.074219 49.011719 220.960938 55.992188 232.472656 67.269531 C 234.234375 68.996094 234.261719 71.824219 232.535156 73.585938 C 230.8125 75.347656 227.980469 75.378906 226.21875 73.652344 C 216.308594 63.945312 202.628906 57.949219 187.5 57.949219 C 172.386719 57.949219 158.6875 63.945312 148.78125 73.652344 Z M 89.761719 209.792969 C 91.488281 211.554688 91.457031 214.386719 89.695312 216.113281 C 87.933594 217.835938 85.105469 217.808594 83.378906 216.046875 C 76.21875 208.738281 71.789062 198.65625 71.789062 187.5 C 71.789062 176.363281 76.21875 166.261719 83.378906 158.953125 C 85.105469 157.191406 87.933594 157.160156 89.695312 158.886719 C 91.457031 160.613281 91.488281 163.441406 89.761719 165.203125 C 84.171875 170.910156 80.722656 178.804688 80.722656 187.5 C 80.722656 196.210938 84.171875 204.085938 89.761719 209.792969 Z M 67.269531 142.527344 C 68.996094 140.765625 71.824219 140.738281 73.585938 142.460938 C 75.347656 144.1875 75.378906 147.019531 73.652344 148.78125 C 63.945312 158.6875 57.949219 172.386719 57.949219 187.5 C 57.949219 202.628906 63.945312 216.308594 73.652344 226.21875 C 75.378906 227.980469 75.347656 230.8125 73.585938 232.535156 C 71.824219 234.261719 68.996094 234.234375 67.269531 232.472656 C 55.992188 220.960938 49.011719 205.074219 49.011719 187.5 C 49.011719 169.945312 55.992188 154.039062 67.269531 142.527344 Z M 209.792969 285.238281 C 211.554688 283.511719 214.386719 283.542969 216.113281 285.300781 C 217.835938 287.0625 217.808594 289.894531 216.046875 291.621094 C 208.738281 298.78125 198.65625 303.210938 187.5 303.210938 C 176.363281 303.210938 166.261719 298.78125 158.953125 291.621094 C 157.191406 289.894531 157.160156 287.0625 158.886719 285.300781 C 160.613281 283.542969 163.441406 283.511719 165.203125 285.238281 C 170.910156 290.828125 178.804688 294.277344 187.5 294.277344 C 196.210938 294.277344 204.085938 290.828125 209.792969 285.238281 Z M 142.527344 307.730469 C 140.765625 306.003906 140.738281 303.171875 142.460938 301.410156 C 144.1875 299.652344 147.019531 299.621094 148.78125 301.347656 C 158.6875 311.054688 172.386719 317.050781 187.5 317.050781 C 202.628906 317.050781 216.308594 311.054688 226.21875 301.347656 C 227.980469 299.621094 230.8125 299.652344 232.535156 301.410156 C 234.261719 303.171875 234.234375 306.003906 232.472656 307.730469 C 220.960938 319.003906 205.074219 325.984375 187.5 325.984375 C 169.945312 325.984375 154.039062 319.003906 142.527344 307.730469 Z M 123.996094 147.46875 L 110.871094 147.46875 C 108.40625 147.46875 106.40625 145.464844 106.40625 143 C 106.40625 140.535156 108.40625 138.53125 110.871094 138.53125 L 126.414062 138.53125 L 136.660156 128.289062 L 136.660156 112.746094 C 136.660156 110.28125 138.660156 108.28125 141.125 108.28125 C 143.589844 108.28125 145.59375 110.28125 145.59375 112.746094 L 145.59375 125.871094 L 166.324219 125.871094 L 166.324219 112.746094 C 166.324219 110.28125 168.328125 108.28125 170.792969 108.28125 C 173.257812 108.28125 175.257812 110.28125 175.257812 112.746094 L 175.257812 125.871094 L 195.992188 125.871094 L 195.992188 112.746094 C 195.992188 110.28125 197.992188 108.28125 200.457031 108.28125 C 202.925781 108.28125 204.925781 110.28125 204.925781 112.746094 L 204.925781 125.871094 L 225.65625 125.871094 L 225.65625 112.746094 C 225.65625 110.28125 227.660156 108.28125 230.125 108.28125 C 232.589844 108.28125 234.59375 110.28125 234.59375 112.746094 L 234.59375 125.871094 L 242.785156 125.871094 C 245.253906 125.871094 247.253906 127.871094 247.253906 130.339844 L 247.253906 138.53125 L 260.378906 138.53125 C 262.84375 138.53125 264.84375 140.535156 264.84375 143 C 264.84375 145.464844 262.84375 147.46875 260.378906 147.46875 L 247.253906 147.46875 L 247.253906 168.199219 L 260.378906 168.199219 C 262.84375 168.199219 264.84375 170.199219 264.84375 172.667969 C 264.84375 175.132812 262.84375 177.132812 260.378906 177.132812 L 247.253906 177.132812 L 247.253906 197.863281 L 260.378906 197.863281 C 262.84375 197.863281 264.84375 199.867188 264.84375 202.332031 C 264.84375 204.796875 262.84375 206.800781 260.378906 206.800781 L 247.253906 206.800781 L 247.253906 227.53125 L 260.378906 227.53125 C 262.84375 227.53125 264.84375 229.535156 264.84375 232 C 264.84375 234.464844 262.84375 236.464844 260.378906 236.464844 L 247.253906 236.464844 L 247.253906 244.660156 C 247.253906 247.125 245.253906 249.125 242.785156 249.125 L 234.59375 249.125 L 234.59375 262.25 C 234.59375 264.714844 232.589844 266.71875 230.125 266.71875 C 227.660156 266.71875 225.65625 264.714844 225.65625 262.25 L 225.65625 249.125 L 204.925781 249.125 L 204.925781 262.25 C 204.925781 264.714844 202.925781 266.71875 200.457031 266.71875 C 197.992188 266.71875 195.992188 264.714844 195.992188 262.25 L 195.992188 249.125 L 175.257812 249.125 L 175.257812 262.25 C 175.257812 264.714844 173.257812 266.71875 170.792969 266.71875 C 168.328125 266.71875 166.324219 264.714844 166.324219 262.25 L 166.324219 249.125 L 145.59375 249.125 L 145.59375 262.25 C 145.59375 264.714844 143.589844 266.71875 141.125 266.71875 C 138.660156 266.71875 136.660156 264.714844 136.660156 262.25 L 136.660156 249.125 L 128.464844 249.125 C 126 249.125 123.996094 247.125 123.996094 244.660156 L 123.996094 236.464844 L 110.871094 236.464844 C 108.40625 236.464844 106.40625 234.464844 106.40625 232 C 106.40625 229.535156 108.40625 227.53125 110.871094 227.53125 L 123.996094 227.53125 L 123.996094 206.800781 L 110.871094 206.800781 C 108.40625 206.800781 106.40625 204.796875 106.40625 202.332031 C 106.40625 199.867188 108.40625 197.863281 110.871094 197.863281 L 123.996094 197.863281 L 123.996094 177.132812 L 110.871094 177.132812 C 108.40625 177.132812 106.40625 175.132812 106.40625 172.667969 C 106.40625 170.199219 108.40625 168.199219 110.871094 168.199219 L 123.996094 168.199219 Z M 238.316406 134.804688 L 142.773438 134.804688 L 132.933594 144.648438 L 132.933594 240.191406 L 238.316406 240.191406 Z M 221.007812 172.171875 L 221.007812 218.414062 C 221.007812 220.882812 219.007812 222.882812 216.539062 222.882812 L 154.710938 222.882812 C 152.242188 222.882812 150.242188 220.882812 150.242188 218.414062 L 150.242188 156.585938 C 150.242188 154.117188 152.242188 152.117188 154.710938 152.117188 L 216.539062 152.117188 C 219.007812 152.117188 221.007812 154.117188 221.007812 156.585938 Z M 212.074219 172.171875 C 212.074219 172.171875 212.074219 161.050781 212.074219 161.050781 C 212.074219 161.050781 159.179688 161.050781 159.179688 161.050781 C 159.179688 161.050781 159.179688 213.945312 159.179688 213.945312 L 212.074219 213.945312 Z M 212.074219 172.171875 " fill-opacity="1" fill-rule="evenodd"/></g></svg>