<svg xmlns="http://www.w3.org/2000/svg" xmlns:xlink="http://www.w3.org/1999/xlink" width="100" zoomAndPan="magnify" viewBox="0 0 75 37.5" height="50" preserveAspectRatio="xMidYMid meet" version="1.0"><defs><clipPath id="b3bf917fdb"><path d="M 7.707031 11.585938 L 13.535156 11.585938 L 13.535156 25.042969 L 7.707031 25.042969 Z M 7.707031 11.585938 " clip-rule="nonzero"/></clipPath><clipPath id="659483bded"><path d="M 13.40625 14.890625 L 7.707031 11.636719 L 7.707031 25.019531 L 9.988281 23.695312 L 9.988281 19.929688 L 11.710938 20.921875 L 11.6875 18.351562 L 9.988281 17.359375 L 9.988281 15.859375 L 13.40625 17.871094 Z M 13.40625 14.890625 " clip-rule="nonzero"/></clipPath><linearGradient x1="24.999999" gradientTransform="matrix(0.2533, 0, 0, 0.25442, 1.376414, -66.928974)" y1="335.04999" x2="47.500001" gradientUnits="userSpaceOnUse" y2="335.04999" id="f89fc0f2ad"><stop stop-opacity="1" stop-color="rgb(100%, 54.299927%, 0%)" offset="0"/><stop stop-opacity="1" stop-color="rgb(100%, 54.441833%, 0%)" offset="0.03125"/><stop stop-opacity="1" stop-color="rgb(100%, 54.725647%, 0%)" offset="0.0625"/><stop stop-opacity="1" stop-color="rgb(100%, 55.010986%, 0%)" offset="0.09375"/><stop stop-opacity="1" stop-color="rgb(100%, 55.2948%, 0%)" offset="0.125"/><stop stop-opacity="1" stop-color="rgb(100%, 55.580139%, 0%)" offset="0.15625"/><stop stop-opacity="1" stop-color="rgb(100%, 55.863953%, 0%)" offset="0.1875"/><stop stop-opacity="1" stop-color="rgb(100%, 56.149292%, 0%)" offset="0.21875"/><stop stop-opacity="1" stop-color="rgb(100%, 56.434631%, 0%)" offset="0.25"/><stop stop-opacity="1" stop-color="rgb(100%, 56.718445%, 0%)" offset="0.28125"/><stop stop-opacity="1" stop-color="rgb(100%, 57.003784%, 0%)" offset="0.3125"/><stop stop-opacity="1" stop-color="rgb(100%, 57.287598%, 0%)" offset="0.34375"/><stop stop-opacity="1" stop-color="rgb(100%, 57.572937%, 0%)" offset="0.375"/><stop stop-opacity="1" stop-color="rgb(100%, 57.858276%, 0%)" offset="0.40625"/><stop stop-opacity="1" stop-color="rgb(100%, 58.14209%, 0%)" offset="0.4375"/><stop stop-opacity="1" stop-color="rgb(100%, 58.427429%, 0%)" offset="0.46875"/><stop stop-opacity="1" stop-color="rgb(100%, 58.711243%, 0%)" offset="0.5"/><stop stop-opacity="1" stop-color="rgb(100%, 58.996582%, 0%)" offset="0.53125"/><stop stop-opacity="1" stop-color="rgb(100%, 59.280396%, 0%)" offset="0.5625"/><stop stop-opacity="1" stop-color="rgb(100%, 59.565735%, 0%)" offset="0.59375"/><stop stop-opacity="1" stop-color="rgb(100%, 59.851074%, 0%)" offset="0.625"/><stop stop-opacity="1" stop-color="rgb(100%, 60.134888%, 0%)" offset="0.65625"/><stop stop-opacity="1" stop-color="rgb(100%, 60.420227%, 0%)" offset="0.6875"/><stop stop-opacity="1" stop-color="rgb(100%, 60.704041%, 0%)" offset="0.71875"/><stop stop-opacity="1" stop-color="rgb(100%, 60.98938%, 0%)" offset="0.75"/><stop stop-opacity="1" stop-color="rgb(100%, 61.273193%, 0%)" offset="0.78125"/><stop stop-opacity="1" stop-color="rgb(100%, 61.558533%, 0%)" offset="0.8125"/><stop stop-opacity="1" stop-color="rgb(100%, 61.843872%, 0%)" offset="0.84375"/><stop stop-opacity="1" stop-color="rgb(100%, 62.127686%, 0%)" offset="0.875"/><stop stop-opacity="1" stop-color="rgb(100%, 62.413025%, 0%)" offset="0.90625"/><stop stop-opacity="1" stop-color="rgb(100%, 62.696838%, 0%)" offset="0.9375"/><stop stop-opacity="1" stop-color="rgb(100%, 62.982178%, 0%)" offset="0.96875"/><stop stop-opacity="1" stop-color="rgb(100%, 63.265991%, 0%)" offset="1"/></linearGradient><clipPath id="05ee5a212a"><path d="M 1.375 11.585938 L 7.203125 11.585938 L 7.203125 25.042969 L 1.375 25.042969 Z M 1.375 11.585938 " clip-rule="nonzero"/></clipPath><clipPath id="d03b2f3aca"><path d="M 1.503906 14.890625 L 7.203125 11.636719 L 7.203125 25.019531 L 4.921875 23.695312 L 4.921875 15.859375 L 1.503906 17.871094 Z M 1.503906 14.890625 " clip-rule="nonzero"/></clipPath><linearGradient x1="0.5" gradientTransform="matrix(0.2533, 0, 0, 0.25442, 1.376414, -66.928974)" y1="335.04999" x2="23" gradientUnits="userSpaceOnUse" y2="335.04999" id="169e9c1e1d"><stop stop-opacity="1" stop-color="rgb(100%, 44.500732%, 0%)" offset="0"/><stop stop-opacity="1" stop-color="rgb(100%, 44.642639%, 0%)" offset="0.03125"/><stop stop-opacity="1" stop-color="rgb(100%, 44.927979%, 0%)" offset="0.0625"/><stop stop-opacity="1" stop-color="rgb(100%, 45.211792%, 0%)" offset="0.09375"/><stop stop-opacity="1" stop-color="rgb(100%, 45.497131%, 0%)" offset="0.125"/><stop stop-opacity="1" stop-color="rgb(100%, 45.780945%, 0%)" offset="0.15625"/><stop stop-opacity="1" stop-color="rgb(100%, 46.066284%, 0%)" offset="0.1875"/><stop stop-opacity="1" stop-color="rgb(100%, 46.351624%, 0%)" offset="0.21875"/><stop stop-opacity="1" stop-color="rgb(100%, 46.635437%, 0%)" offset="0.25"/><stop stop-opacity="1" stop-color="rgb(100%, 46.920776%, 0%)" offset="0.28125"/><stop stop-opacity="1" stop-color="rgb(100%, 47.20459%, 0%)" offset="0.3125"/><stop stop-opacity="1" stop-color="rgb(100%, 47.489929%, 0%)" offset="0.34375"/><stop stop-opacity="1" stop-color="rgb(100%, 47.773743%, 0%)" offset="0.375"/><stop stop-opacity="1" stop-color="rgb(100%, 48.059082%, 0%)" offset="0.40625"/><stop stop-opacity="1" stop-color="rgb(100%, 48.344421%, 0%)" offset="0.4375"/><stop stop-opacity="1" stop-color="rgb(100%, 48.628235%, 0%)" offset="0.46875"/><stop stop-opacity="1" stop-color="rgb(100%, 48.913574%, 0%)" offset="0.5"/><stop stop-opacity="1" stop-color="rgb(100%, 49.197388%, 0%)" offset="0.53125"/><stop stop-opacity="1" stop-color="rgb(100%, 49.482727%, 0%)" offset="0.5625"/><stop stop-opacity="1" stop-color="rgb(100%, 49.766541%, 0%)" offset="0.59375"/><stop stop-opacity="1" stop-color="rgb(100%, 50.05188%, 0%)" offset="0.625"/><stop stop-opacity="1" stop-color="rgb(100%, 50.337219%, 0%)" offset="0.65625"/><stop stop-opacity="1" stop-color="rgb(100%, 50.621033%, 0%)" offset="0.6875"/><stop stop-opacity="1" stop-color="rgb(100%, 50.906372%, 0%)" offset="0.71875"/><stop stop-opacity="1" stop-color="rgb(100%, 51.190186%, 0%)" offset="0.75"/><stop stop-opacity="1" stop-color="rgb(100%, 51.475525%, 0%)" offset="0.78125"/><stop stop-opacity="1" stop-color="rgb(100%, 51.760864%, 0%)" offset="0.8125"/><stop stop-opacity="1" stop-color="rgb(100%, 52.044678%, 0%)" offset="0.84375"/><stop stop-opacity="1" stop-color="rgb(100%, 52.330017%, 0%)" offset="0.875"/><stop stop-opacity="1" stop-color="rgb(100%, 52.613831%, 0%)" offset="0.90625"/><stop stop-opacity="1" stop-color="rgb(100%, 52.89917%, 0%)" offset="0.9375"/><stop stop-opacity="1" stop-color="rgb(100%, 53.182983%, 0%)" offset="0.96875"/><stop stop-opacity="1" stop-color="rgb(100%, 53.468323%, 0%)" offset="1"/></linearGradient><clipPath id="aeb99977bc"><path d="M 22 14 L 73.863281 14 L 73.863281 23 L 22 23 Z M 22 14 " clip-rule="nonzero"/></clipPath></defs><g clip-path="url(#b3bf917fdb)"><g clip-path="url(#659483bded)"><path fill="url(#f89fc0f2ad)" d="M 7.707031 11.636719 L 7.707031 25.019531 L 13.40625 25.019531 L 13.40625 11.636719 Z M 7.707031 11.636719 " fill-rule="nonzero"/></g></g><g clip-path="url(#05ee5a212a)"><g clip-path="url(#d03b2f3aca)"><path fill="url(#169e9c1e1d)" d="M 1.503906 11.636719 L 1.503906 25.019531 L 7.203125 25.019531 L 7.203125 11.636719 Z M 1.503906 11.636719 " fill-rule="nonzero"/></g></g><path fill="#425066" d="M 23.71875 15.78125 L 21.183594 15.78125 L 21.183594 22.832031 L 19.765625 22.832031 L 19.765625 15.78125 L 17.234375 15.78125 L 17.234375 14.636719 L 23.71875 14.636719 Z M 23.71875 15.78125 " fill-opacity="1" fill-rule="nonzero"/><g clip-path="url(#aeb99977bc)"><path fill="#425066" d="M 25.414062 22.933594 C 24.554688 22.933594 23.84375 22.652344 23.3125 22.117188 C 22.78125 21.582031 22.5 20.847656 22.5 19.929688 L 22.5 19.753906 C 22.5 19.191406 22.601562 18.632812 22.855469 18.125 C 23.085938 17.664062 23.414062 17.285156 23.84375 17.003906 C 24.273438 16.722656 24.757812 16.597656 25.261719 16.597656 C 26.097656 16.597656 26.730469 16.851562 27.1875 17.386719 C 27.644531 17.921875 27.871094 18.65625 27.871094 19.625 L 27.871094 20.183594 L 23.894531 20.183594 C 23.921875 20.640625 24.097656 21.050781 24.402344 21.378906 C 24.707031 21.6875 25.085938 21.839844 25.515625 21.8125 C 26.125 21.839844 26.679688 21.53125 27.035156 21.050781 L 27.769531 21.761719 C 27.515625 22.117188 27.1875 22.421875 26.808594 22.601562 C 26.351562 22.855469 25.894531 22.957031 25.414062 22.933594 Z M 25.261719 17.714844 C 24.90625 17.691406 24.578125 17.84375 24.351562 18.097656 C 24.097656 18.402344 23.945312 18.785156 23.921875 19.191406 L 26.527344 19.191406 L 26.527344 19.089844 C 26.503906 18.632812 26.378906 18.277344 26.175781 18.046875 C 25.921875 17.84375 25.59375 17.691406 25.261719 17.714844 Z M 30.175781 16.722656 L 30.226562 17.4375 C 30.65625 16.902344 31.316406 16.597656 32 16.621094 C 33.265625 16.621094 33.898438 17.359375 33.925781 18.8125 L 33.925781 22.832031 L 32.558594 22.832031 L 32.558594 18.886719 C 32.558594 18.503906 32.480469 18.226562 32.304688 18.023438 C 32.128906 17.84375 31.875 17.742188 31.492188 17.742188 C 30.960938 17.714844 30.480469 18.023438 30.253906 18.480469 L 30.253906 22.804688 L 28.886719 22.804688 L 28.886719 16.699219 Z M 38.332031 21.175781 C 38.332031 20.949219 38.230469 20.746094 38.027344 20.617188 C 37.726562 20.4375 37.371094 20.335938 37.042969 20.285156 C 36.636719 20.210938 36.253906 20.082031 35.875 19.90625 C 35.191406 19.574219 34.863281 19.089844 34.863281 18.480469 C 34.863281 17.972656 35.117188 17.460938 35.519531 17.15625 C 35.953125 16.800781 36.535156 16.621094 37.191406 16.621094 C 37.925781 16.621094 38.511719 16.800781 38.941406 17.15625 C 39.371094 17.488281 39.625 18.023438 39.597656 18.554688 L 38.230469 18.554688 C 38.230469 18.300781 38.128906 18.074219 37.925781 17.894531 C 37.699219 17.714844 37.445312 17.613281 37.140625 17.640625 C 36.890625 17.640625 36.636719 17.691406 36.40625 17.84375 C 36.230469 17.972656 36.128906 18.175781 36.128906 18.402344 C 36.128906 18.605469 36.230469 18.785156 36.382812 18.886719 C 36.558594 19.015625 36.914062 19.117188 37.445312 19.242188 C 37.875 19.320312 38.308594 19.472656 38.710938 19.675781 C 38.992188 19.804688 39.21875 20.007812 39.398438 20.261719 C 39.546875 20.515625 39.625 20.796875 39.625 21.101562 C 39.625 21.632812 39.371094 22.117188 38.941406 22.421875 C 38.484375 22.753906 37.902344 22.933594 37.167969 22.933594 C 36.710938 22.933594 36.253906 22.855469 35.851562 22.652344 C 35.496094 22.5 35.167969 22.246094 34.9375 21.914062 C 34.734375 21.609375 34.609375 21.253906 34.609375 20.898438 L 35.925781 20.898438 C 35.925781 21.175781 36.054688 21.457031 36.28125 21.632812 C 36.535156 21.8125 36.863281 21.914062 37.167969 21.890625 C 37.523438 21.890625 37.800781 21.8125 37.976562 21.6875 C 38.230469 21.582031 38.332031 21.378906 38.332031 21.175781 Z M 40.382812 19.726562 C 40.382812 19.167969 40.484375 18.605469 40.738281 18.125 C 40.96875 17.664062 41.296875 17.285156 41.726562 17.03125 C 42.183594 16.773438 42.691406 16.621094 43.195312 16.648438 C 44.007812 16.648438 44.691406 16.902344 45.199219 17.4375 C 45.703125 17.972656 45.984375 18.65625 46.03125 19.546875 L 46.03125 19.878906 C 46.03125 20.4375 45.933594 20.972656 45.679688 21.480469 C 45.476562 21.941406 45.121094 22.320312 44.691406 22.574219 C 44.234375 22.832031 43.726562 22.984375 43.195312 22.957031 C 42.335938 22.957031 41.652344 22.679688 41.144531 22.09375 C 40.636719 21.53125 40.382812 20.769531 40.359375 19.804688 Z M 41.726562 19.855469 C 41.726562 20.488281 41.855469 20.972656 42.105469 21.328125 C 42.5625 21.914062 43.398438 22.042969 44.007812 21.582031 C 44.109375 21.507812 44.183594 21.429688 44.261719 21.328125 C 44.511719 20.972656 44.640625 20.4375 44.640625 19.753906 C 44.640625 19.140625 44.511719 18.65625 44.234375 18.277344 C 43.804688 17.691406 42.96875 17.5625 42.359375 17.996094 C 42.257812 18.074219 42.15625 18.175781 42.082031 18.25 C 41.878906 18.605469 41.726562 19.140625 41.726562 19.855469 Z M 50.109375 17.996094 C 49.933594 17.972656 49.730469 17.945312 49.554688 17.945312 C 48.921875 17.945312 48.515625 18.175781 48.289062 18.65625 L 48.289062 22.832031 L 46.917969 22.832031 L 46.917969 16.722656 L 48.210938 16.722656 L 48.238281 17.410156 C 48.566406 16.878906 49.023438 16.621094 49.605469 16.621094 C 49.757812 16.621094 49.933594 16.648438 50.085938 16.699219 Z M 55.8125 19.34375 L 52.519531 19.34375 L 52.519531 22.832031 L 51.097656 22.832031 L 51.097656 14.636719 L 56.292969 14.636719 L 56.292969 15.78125 L 52.519531 15.78125 L 52.519531 18.226562 L 55.8125 18.226562 Z M 58.519531 22.832031 L 57.152344 22.832031 L 57.152344 14.613281 L 58.519531 14.613281 Z M 59.507812 19.726562 C 59.507812 19.167969 59.609375 18.605469 59.863281 18.125 C 60.089844 17.664062 60.421875 17.285156 60.851562 17.03125 C 61.308594 16.773438 61.8125 16.621094 62.320312 16.648438 C 63.132812 16.648438 63.816406 16.902344 64.320312 17.4375 C 64.828125 17.972656 65.105469 18.65625 65.15625 19.546875 L 65.15625 19.878906 C 65.15625 20.4375 65.054688 20.972656 64.828125 21.480469 C 64.625 21.941406 64.269531 22.320312 63.839844 22.574219 C 63.382812 22.832031 62.878906 22.984375 62.34375 22.957031 C 61.484375 22.957031 60.800781 22.679688 60.292969 22.09375 C 59.789062 21.53125 59.507812 20.769531 59.507812 19.804688 Z M 60.875 19.855469 C 60.875 20.488281 61.003906 20.972656 61.257812 21.328125 C 61.511719 21.6875 61.914062 21.890625 62.34375 21.863281 C 62.777344 21.890625 63.179688 21.6875 63.410156 21.328125 C 63.664062 20.972656 63.789062 20.4375 63.789062 19.753906 C 63.789062 19.140625 63.664062 18.65625 63.382812 18.277344 C 62.953125 17.691406 62.117188 17.5625 61.511719 17.996094 C 61.410156 18.074219 61.308594 18.175781 61.230469 18.25 C 61.003906 18.605469 60.875 19.140625 60.875 19.855469 Z M 71.3125 20.949219 L 72.273438 16.75 L 73.59375 16.75 L 71.945312 22.855469 L 70.832031 22.855469 L 69.539062 18.65625 L 68.246094 22.855469 L 67.132812 22.855469 L 65.460938 16.75 L 66.804688 16.75 L 67.792969 20.921875 L 69.03125 16.75 L 70.070312 16.75 Z M 71.3125 20.949219 " fill-opacity="1" fill-rule="nonzero"/></g></svg>